<mxfile host="app.diagrams.net" modified="2024-03-21T13:15:09.079Z" agent="Mozilla/5.0 (Windows NT 10.0; Win64; x64; rv:123.0) Gecko/20100101 Firefox/123.0" etag="YF5P20BBS_3WR-AV1KiP" version="24.0.6" type="github">
  <diagram id="C5RBs43oDa-KdzZeNtuy" name="Page-1">
    <mxGraphModel dx="2490" dy="166" grid="0" gridSize="10" guides="1" tooltips="1" connect="1" arrows="1" fold="1" page="0" pageScale="1" pageWidth="827" pageHeight="1169" math="0" shadow="0">
      <root>
        <mxCell id="WIyWlLk6GJQsqaUBKTNV-0" />
        <mxCell id="WIyWlLk6GJQsqaUBKTNV-1" parent="WIyWlLk6GJQsqaUBKTNV-0" />
        <mxCell id="Z0-859JoU0TvKjbYaFMb-68" value="" style="edgeStyle=orthogonalEdgeStyle;rounded=1;html=1;jettySize=auto;orthogonalLoop=1;fontSize=11;endArrow=block;endFill=0;endSize=8;strokeWidth=1;shadow=0;labelBackgroundColor=none;" parent="WIyWlLk6GJQsqaUBKTNV-1" edge="1">
          <mxGeometry y="10" relative="1" as="geometry">
            <mxPoint as="offset" />
            <mxPoint x="1060" y="790" as="sourcePoint" />
            <mxPoint x="970" y="790" as="targetPoint" />
          </mxGeometry>
        </mxCell>
        <mxCell id="Z0-859JoU0TvKjbYaFMb-75" value="" style="edgeStyle=orthogonalEdgeStyle;rounded=1;html=1;jettySize=auto;orthogonalLoop=1;fontSize=11;endArrow=block;endFill=0;endSize=8;strokeWidth=1;shadow=0;labelBackgroundColor=none;" parent="WIyWlLk6GJQsqaUBKTNV-1" edge="1">
          <mxGeometry y="10" relative="1" as="geometry">
            <mxPoint as="offset" />
            <mxPoint x="720" y="810" as="sourcePoint" />
            <mxPoint x="770" y="810" as="targetPoint" />
          </mxGeometry>
        </mxCell>
        <mxCell id="BBlxG4BEJUb8OcIbpDqR-0" value="" style="endArrow=none;html=1;rounded=0;" parent="WIyWlLk6GJQsqaUBKTNV-1" edge="1">
          <mxGeometry width="50" height="50" relative="1" as="geometry">
            <mxPoint x="-52" y="843" as="sourcePoint" />
            <mxPoint x="1104" y="843" as="targetPoint" />
          </mxGeometry>
        </mxCell>
        <mxCell id="0iMnUcxqCF86Wchd9Drz-1" value="&lt;div&gt;&lt;font style=&quot;font-size: 16px;&quot;&gt;Reader :&lt;/font&gt;&lt;/div&gt; &lt;div&gt;&lt;br&gt;&lt;/div&gt;&lt;div&gt;&lt;font style=&quot;font-size: 14px;&quot;&gt;sélectionne dans &lt;b&gt;pilotage_ar&lt;/b&gt;&lt;/font&gt;&lt;/div&gt;&lt;div&gt;&lt;font style=&quot;font-size: 14px;&quot;&gt;les lignes marquées &quot;A traiter&quot;&lt;br&gt;&lt;/font&gt;&lt;/div&gt;" style="rounded=1;whiteSpace=wrap;html=1;fontSize=12;glass=0;strokeWidth=1;shadow=0;fillColor=#dae8fc;strokeColor=#82b366;" parent="WIyWlLk6GJQsqaUBKTNV-1" vertex="1">
          <mxGeometry x="782" y="1106" width="314" height="100" as="geometry" />
        </mxCell>
        <mxCell id="0iMnUcxqCF86Wchd9Drz-2" value="&lt;div&gt;&lt;font style=&quot;font-size: 16px;&quot;&gt;RechercheProcessor :&lt;/font&gt;&lt;/div&gt; &lt;div&gt;&lt;br&gt;&lt;/div&gt;&lt;div&gt;&lt;font style=&quot;font-size: 14px;&quot;&gt;consulte la table &lt;b&gt;assure&lt;/b&gt;,&lt;/font&gt;&lt;/div&gt;&lt;div&gt;&lt;font style=&quot;font-size: 14px;&quot;&gt;remplit les champs &lt;br&gt;&lt;/font&gt;&lt;/div&gt;&lt;div&gt;&lt;span style=&quot;font-size:10.0pt;mso-bidi-font-size:11.0pt;&lt;br/&gt;line-height:115%;font-family:&amp;quot;Arial&amp;quot;,sans-serif;mso-fareast-font-family:Calibri;&lt;br/&gt;mso-bidi-font-family:Calibri;mso-ansi-language:FR;mso-fareast-language:EN-US;&lt;br/&gt;mso-bidi-language:AR-SA&quot;&gt;pilotageResultatEntityList, idAssureRetenu&lt;/span&gt;&lt;/div&gt;&lt;div&gt;&lt;font style=&quot;font-size: 14px;&quot;&gt;&lt;span style=&quot;font-family: &amp;quot;Arial&amp;quot;, sans-serif;&quot;&gt;dan&lt;/span&gt;&lt;span style=&quot;font-family: &amp;quot;Arial&amp;quot;, sans-serif;&quot;&gt;s un PilotageArEntity&lt;br&gt;&lt;/span&gt;&lt;/font&gt;&lt;/div&gt;" style="rounded=1;whiteSpace=wrap;html=1;fontSize=12;glass=0;strokeWidth=1;shadow=0;fillColor=#dae8fc;strokeColor=#82b366;" parent="WIyWlLk6GJQsqaUBKTNV-1" vertex="1">
          <mxGeometry x="785" y="1292" width="314" height="100" as="geometry" />
        </mxCell>
        <mxCell id="0iMnUcxqCF86Wchd9Drz-3" value="&lt;div&gt;&lt;font style=&quot;font-size: 16px;&quot;&gt;RechercheWriter :&lt;/font&gt;&lt;/div&gt; &lt;div&gt;&lt;br&gt;&lt;/div&gt;&lt;div&gt;&lt;font style=&quot;font-size: 14px;&quot;&gt;à partir d&#39;une List&amp;lt;PamSimplifiee&amp;gt;,&lt;/font&gt;&lt;/div&gt;&lt;div&gt;&lt;font style=&quot;font-size: 14px;&quot;&gt;ajoute une ligne dans &lt;/font&gt;&lt;font style=&quot;font-size: 14px;&quot;&gt;&lt;b&gt;pamSimplifiee&lt;/b&gt;&lt;/font&gt;&lt;font style=&quot;font-size: 14px;&quot;&gt; par&amp;nbsp; &lt;/font&gt;&lt;font style=&quot;font-size: 14px;&quot;&gt;PamSimplifiee,&lt;/font&gt;&lt;/div&gt;&lt;div&gt;&lt;font style=&quot;font-size: 14px;&quot;&gt;complète la ligne dans &lt;b&gt;formulaire&lt;/b&gt;&lt;/font&gt;&lt;/div&gt;" style="rounded=1;whiteSpace=wrap;html=1;fontSize=12;glass=0;strokeWidth=1;shadow=0;fillColor=#dae8fc;strokeColor=#82b366;" parent="WIyWlLk6GJQsqaUBKTNV-1" vertex="1">
          <mxGeometry x="788" y="1455" width="314" height="100" as="geometry" />
        </mxCell>
        <mxCell id="0iMnUcxqCF86Wchd9Drz-4" value="&lt;div&gt;&lt;font style=&quot;font-size: 16px;&quot;&gt;CollecteSnv2StepListener.afterJob :&lt;/font&gt;&lt;/div&gt; &lt;div&gt;&lt;br&gt;&lt;/div&gt;&lt;div&gt;&lt;font style=&quot;font-size: 14px;&quot;&gt;stocke le nombre de déclarations lues&lt;/font&gt;&lt;/div&gt;&lt;div&gt;&lt;font style=&quot;font-size: 14px;&quot;&gt;dans le jobInfo&lt;br&gt;&lt;/font&gt;&lt;/div&gt;" style="rounded=1;whiteSpace=wrap;html=1;fontSize=12;glass=0;strokeWidth=1;shadow=0;fillColor=#fff2cc;strokeColor=#82b366;" parent="WIyWlLk6GJQsqaUBKTNV-1" vertex="1">
          <mxGeometry x="785" y="1640" width="314" height="100" as="geometry" />
        </mxCell>
        <mxCell id="0iMnUcxqCF86Wchd9Drz-5" value="&lt;div&gt;&lt;font style=&quot;font-size: 16px;&quot;&gt;CollecteSnv2NoWorkDoneExecutionListener.afterJob :&lt;/font&gt;&lt;/div&gt; &lt;div&gt;&lt;br&gt;&lt;/div&gt;&lt;div&gt;&lt;font style=&quot;font-size: 14px;&quot;&gt;si des lectures partielles ont été faites&amp;nbsp;&lt;/font&gt;&lt;/div&gt;&lt;div&gt;&lt;font style=&quot;font-size: 14px;&quot;&gt;mais aucun résultat n&#39;a été produit,&amp;nbsp;&lt;/font&gt;&lt;/div&gt;&lt;div&gt;&lt;font style=&quot;font-size: 14px;&quot;&gt;met l&#39;ExitStatus du batch&amp;nbsp; à STOPPED&lt;br&gt;&lt;/font&gt;&lt;/div&gt;" style="rounded=1;whiteSpace=wrap;html=1;fontSize=12;glass=0;strokeWidth=1;shadow=0;fillColor=#fff2cc;strokeColor=#82b366;" parent="WIyWlLk6GJQsqaUBKTNV-1" vertex="1">
          <mxGeometry x="730.5" y="1794" width="417" height="100" as="geometry" />
        </mxCell>
        <mxCell id="0iMnUcxqCF86Wchd9Drz-18" value="" style="endArrow=none;html=1;rounded=0;" parent="WIyWlLk6GJQsqaUBKTNV-1" edge="1">
          <mxGeometry width="50" height="50" relative="1" as="geometry">
            <mxPoint x="-909" y="1553" as="sourcePoint" />
            <mxPoint x="-834" y="1553" as="targetPoint" />
          </mxGeometry>
        </mxCell>
        <mxCell id="0iMnUcxqCF86Wchd9Drz-19" value="" style="endArrow=none;html=1;rounded=0;" parent="WIyWlLk6GJQsqaUBKTNV-1" edge="1">
          <mxGeometry width="50" height="50" relative="1" as="geometry">
            <mxPoint x="680" y="1062" as="sourcePoint" />
            <mxPoint x="1198" y="1062" as="targetPoint" />
          </mxGeometry>
        </mxCell>
        <mxCell id="0iMnUcxqCF86Wchd9Drz-20" value="" style="endArrow=none;html=1;rounded=0;" parent="WIyWlLk6GJQsqaUBKTNV-1" edge="1">
          <mxGeometry width="50" height="50" relative="1" as="geometry">
            <mxPoint x="688" y="1942" as="sourcePoint" />
            <mxPoint x="1198" y="1938" as="targetPoint" />
          </mxGeometry>
        </mxCell>
        <mxCell id="0iMnUcxqCF86Wchd9Drz-21" value="" style="endArrow=none;html=1;rounded=0;" parent="WIyWlLk6GJQsqaUBKTNV-1" edge="1">
          <mxGeometry width="50" height="50" relative="1" as="geometry">
            <mxPoint x="-919" y="1707" as="sourcePoint" />
            <mxPoint x="-919" y="1800" as="targetPoint" />
          </mxGeometry>
        </mxCell>
        <mxCell id="0iMnUcxqCF86Wchd9Drz-22" value="" style="endArrow=none;html=1;rounded=0;" parent="WIyWlLk6GJQsqaUBKTNV-1" edge="1">
          <mxGeometry width="50" height="50" relative="1" as="geometry">
            <mxPoint x="1194" y="1063" as="sourcePoint" />
            <mxPoint x="1201" y="1942" as="targetPoint" />
          </mxGeometry>
        </mxCell>
        <mxCell id="0iMnUcxqCF86Wchd9Drz-24" value="" style="endArrow=none;html=1;rounded=0;" parent="WIyWlLk6GJQsqaUBKTNV-1" edge="1">
          <mxGeometry width="50" height="50" relative="1" as="geometry">
            <mxPoint x="680" y="1065.5" as="sourcePoint" />
            <mxPoint x="687" y="1944.5" as="targetPoint" />
          </mxGeometry>
        </mxCell>
        <mxCell id="0iMnUcxqCF86Wchd9Drz-34" value="&lt;div&gt;&lt;font style=&quot;font-size: 36px;&quot;&gt;&lt;b&gt;Batch recherche&lt;br&gt;&lt;/b&gt;&lt;/font&gt;&lt;/div&gt;&lt;div&gt;&lt;font size=&quot;3&quot;&gt;&lt;b&gt;&lt;br&gt;&lt;/b&gt;&lt;/font&gt;&lt;/div&gt;" style="text;html=1;align=center;verticalAlign=middle;whiteSpace=wrap;rounded=0;" parent="WIyWlLk6GJQsqaUBKTNV-1" vertex="1">
          <mxGeometry x="705" y="1000" width="468" height="78" as="geometry" />
        </mxCell>
        <mxCell id="0iMnUcxqCF86Wchd9Drz-42" value="" style="endArrow=classic;html=1;rounded=0;entryX=0.481;entryY=0.04;entryDx=0;entryDy=0;entryPerimeter=0;" parent="WIyWlLk6GJQsqaUBKTNV-1" target="0iMnUcxqCF86Wchd9Drz-2" edge="1">
          <mxGeometry width="50" height="50" relative="1" as="geometry">
            <mxPoint x="936" y="1204" as="sourcePoint" />
            <mxPoint x="936" y="1268" as="targetPoint" />
          </mxGeometry>
        </mxCell>
        <mxCell id="0iMnUcxqCF86Wchd9Drz-43" value="" style="endArrow=classic;html=1;rounded=0;" parent="WIyWlLk6GJQsqaUBKTNV-1" edge="1">
          <mxGeometry width="50" height="50" relative="1" as="geometry">
            <mxPoint x="936" y="1391" as="sourcePoint" />
            <mxPoint x="936" y="1455" as="targetPoint" />
          </mxGeometry>
        </mxCell>
        <mxCell id="0iMnUcxqCF86Wchd9Drz-44" value="" style="endArrow=classic;html=1;rounded=0;entryX=0.478;entryY=0.03;entryDx=0;entryDy=0;entryPerimeter=0;" parent="WIyWlLk6GJQsqaUBKTNV-1" target="0iMnUcxqCF86Wchd9Drz-4" edge="1">
          <mxGeometry width="50" height="50" relative="1" as="geometry">
            <mxPoint x="936" y="1558" as="sourcePoint" />
            <mxPoint x="936" y="1622" as="targetPoint" />
          </mxGeometry>
        </mxCell>
        <mxCell id="0iMnUcxqCF86Wchd9Drz-45" value="" style="endArrow=classic;html=1;rounded=0;entryX=0.5;entryY=0;entryDx=0;entryDy=0;" parent="WIyWlLk6GJQsqaUBKTNV-1" target="0iMnUcxqCF86Wchd9Drz-5" edge="1">
          <mxGeometry width="50" height="50" relative="1" as="geometry">
            <mxPoint x="938.5" y="1740" as="sourcePoint" />
            <mxPoint x="938.5" y="1804" as="targetPoint" />
          </mxGeometry>
        </mxCell>
        <mxCell id="0iMnUcxqCF86Wchd9Drz-53" value="&lt;font style=&quot;font-size: 24px;&quot;&gt;FAILED&lt;/font&gt;" style="text;html=1;align=center;verticalAlign=middle;whiteSpace=wrap;rounded=0;" parent="WIyWlLk6GJQsqaUBKTNV-1" vertex="1">
          <mxGeometry x="-912" y="1364" width="130" height="60" as="geometry" />
        </mxCell>
      </root>
    </mxGraphModel>
  </diagram>
</mxfile>
